<svg xmlns="http://www.w3.org/2000/svg" xmlns:svg="http://www.w3.org/2000/svg" id="draw" width="161.994" height="305.808" x="0" y="0" enable-background="new 0 0 387.573 271.669" version="1.1" viewBox="0 0 161.994 305.808" xml:space="preserve"><metadata id="metadata19"/><title id="title2">Plane</title><path id="path11108" d="m 50.274338,279.30496 c 0,0 -15.66603,0.669 -28.33203,26 l 59.05469,0.002 h 59.054682 c -12.667,-25.332 -28.33203,-26 -28.33203,-26 l -21.255852,-0.002 v -60.55469 c 0,-16.083 1.69956,-16.81682 2.97656,-19.04882 0.843,-1.477 27.941412,-30.73829 27.941412,-30.73829 V 59.750272 c 0,-47.25 -40.384772,-47.25781 -40.384772,-47.25781 0,0 -40.38476,0.0078 -40.38476,47.25781 V 168.96316 c 0,0 27.09845,29.26229 27.93945,30.73829 1.274,2.232 2.97852,2.96582 2.97852,19.04882 v 60.55469 z" style="fill:#4ec3e8;stroke:#000;stroke-linecap:round;stroke-linejoin:round"/><g id="g47" transform="translate(-113.37719,22.134011)"><g id="g9800" transform="translate(113.37886,-20.70058)" style="opacity:.8"><ellipse id="ellipse9798" cx="80.998" cy="132.01" rx="80.989" ry="81.006" transform="matrix(0.7091,-0.7051,0.7051,0.7091,-69.5206,95.5208)" style="fill:#159e1f"/></g><path id="path9802" stroke-miterlimit="10" d="m 202.31986,102.41542 c -4.374,-4.384 -11.473,-4.393 -15.858,-0.02 -4.384,4.374 -4.393,11.473 -0.02,15.857 4.365,4.376 11.447,4.395 15.835,0.042 4.396,-4.335 4.446,-11.414 0.111,-15.811 -0.022,-0.022 -0.045,-0.045 -0.068,-0.068 z" style="fill:#fff;stroke:#000;stroke-miterlimit:10"/><path style="opacity:1;fill:#fff;fill-opacity:1;fill-rule:evenodd;stroke:none;stroke-width:1.58976662px;stroke-linecap:butt;stroke-linejoin:miter;stroke-opacity:1" id="path7676" d="m 254.33734,140.92851 c 11.44643,-12.15033 13.42003,-19.85004 15.45523,-30.20517 l -19.37431,-0.19872 c 4.08702,6.5021 5.27551,17.47103 3.91908,30.40389 z"/><path id="path7711" d="m 223.94673,38.425681 c -3.13084,3.863564 -7.10954,7.019918 -11.58403,9.189766" transform="matrix(0.69323829,-1.4306567,1.4306567,0.69323829,44.980225,381.54018)" style="opacity:1;fill:none;fill-opacity:1;fill-rule:evenodd;stroke:#ffffec;stroke-width:2.51338577;stroke-linecap:butt;stroke-linejoin:miter;stroke-miterlimit:4;stroke-dasharray:none;stroke-opacity:1"/><path id="path7831" d="m 133.22559,81.59943 c -11.44643,12.15033 -13.42003,19.85003 -15.45524,30.20517 l 19.37431,0.19873 c -4.08701,-6.50211 -5.27551,-17.47103 -3.91907,-30.4039 z" style="opacity:1;fill:#fff;fill-opacity:1;fill-rule:evenodd;stroke:none;stroke-width:1.58976662px;stroke-linecap:butt;stroke-linejoin:miter;stroke-opacity:1"/><path style="opacity:1;fill:none;fill-opacity:1;fill-rule:evenodd;stroke:#ffffec;stroke-width:2.51338577;stroke-linecap:butt;stroke-linejoin:miter;stroke-miterlimit:4;stroke-dasharray:none;stroke-opacity:1" id="path7833" d="m 223.94673,38.425681 c -3.13084,3.863564 -7.10954,7.019918 -11.58403,9.189766" transform="matrix(-0.69323831,1.4306567,-1.4306567,-0.69323831,342.58271,-159.01222)"/><g id="text7999" aria-label="1" transform="translate(113.37886,-20.70058)" style="font-style:normal;font-variant:normal;font-weight:400;font-stretch:normal;font-size:52.99222565px;line-height:125%;font-family:sans-serif;-inkscape-font-specification:sans-serif;letter-spacing:0;word-spacing:0;fill:#fff;fill-opacity:1;stroke:none;stroke-width:1.58976662px;stroke-linecap:butt;stroke-linejoin:miter;stroke-opacity:1"><path id="path10409" d="m 81.956066,73.258968 h -8.31978 v -3.33851 q 5.405207,-0.688899 6.994974,-1.90772 1.589767,-1.165829 2.702603,-4.928277 0.105985,-0.317953 0.211969,-0.635907 h 3.073549 v 37.571486 h -4.663315 z" style="font-style:normal;font-variant:normal;font-weight:400;font-stretch:normal;font-size:52.99222565px;font-family:FreeSans;-inkscape-font-specification:FreeSans;fill:#fff;fill-opacity:1;stroke-width:1.58976662px"/></g></g><g id="g973" transform="translate(-112.789,34.13875)"><polygon id="polygon10" stroke-miterlimit="10" points="154.731 258.153 232.841 258.153 232.841 271.153 154.731 271.169" style="fill:#159e1f;stroke:#000;stroke-miterlimit:10"/><polygon id="polygon12" stroke-miterlimit="10" points="191.395 270.987 189.395 245.32 198.228 245.32 196.228 270.987" style="fill:#159e1f;stroke:#000;stroke-miterlimit:10"/></g><ellipse style="opacity:.8;fill:#4ec3e8;stroke-width:1.18758416" id="ellipse69" cx="80.997" cy="6.069" enable-background="new" rx="35.607" ry="6.069"/><path style="opacity:1;fill:#4ec3e8;fill-opacity:1;stroke:none;stroke-width:.11511399;stroke-linejoin:round;stroke-miterlimit:4;stroke-dasharray:none;stroke-opacity:1" id="path969"/></svg>