<svg xmlns="http://www.w3.org/2000/svg" xmlns:svg="http://www.w3.org/2000/svg" id="draw" width="122.802" height="241.146" x="0" y="0" enable-background="new 0 0 369.157 369.144" version="1.1" viewBox="0 0 122.802 241.145" xml:space="preserve"><metadata id="metadata43"/><title id="title2">QuadRotorH</title><path style="fill:#4ec3e8;stroke:#000;stroke-width:.359;stroke-miterlimit:4;stroke-dasharray:none;stroke-opacity:1" id="ellipse13879" d="m 109.41197,19.819058 c 26.99655,26.083937 8.49815,63.558027 -18.645697,89.489232 -11.808262,11.28073 -21.609011,12.6283 -26.520892,27.26939 -2.307541,6.8782 -1.01847,10.08731 -2.006378,9.89472 -3.746591,-0.73038 -0.07333,-1e-5 -3.746591,-0.73038 -0.550518,-0.10946 0.912002,-8.32935 -1.932607,-12.91792 C 48.691467,120.1319 43.063729,120.05326 32.37403,109.395 12.460601,89.54014 -15.761738,45.473715 11.382107,19.542512 38.52595,-6.3886942 82.415417,-6.2648801 109.41197,19.819058 Z"/><rect style="fill:red;fill-opacity:1;stroke:#000;stroke-width:.24552976;stroke-miterlimit:4;stroke-dasharray:none;stroke-opacity:1" id="rect37" width="28.292" height="27.277" x="47.312" y="213.746"/><path style="fill:none;fill-rule:evenodd;stroke:#000;stroke-width:.95326936px;stroke-linecap:butt;stroke-linejoin:miter;stroke-opacity:1" id="path4549" d="m 60.663239,146.16692 c 0.8072,18.36218 1.5684,43.56254 1.32779,57.69193"/><path style="fill:none;fill-rule:evenodd;stroke:#000;stroke-width:.66656131px;stroke-linecap:butt;stroke-linejoin:miter;stroke-opacity:1" id="path848" d="m 54.341679,213.74572 c 2.37161,-3.60386 6.9481,-8.19494 7.64935,-9.88687 0.74741,1.64004 4.52647,6.50033 6.82427,9.88687"/></svg>