<svg xmlns="http://www.w3.org/2000/svg" xmlns:svg="http://www.w3.org/2000/svg" id="draw" x="0" y="0" enable-background="new 0 0 409.161 409.857" version="1.1" viewBox="0 0 409.161 409.857" xml:space="preserve"><metadata id="metadata22409"/><title id="title22342">OctoRotorPlus</title><rect id="rect22344" width="6.777" height="307.144" x="201.192" y="51.713" fill="#FFF" stroke="#000" stroke-miterlimit="10"/><rect id="rect22346" width="307.161" height="6.777" x="50.999" y="201.896" fill="#FFF" stroke="#000" stroke-miterlimit="10"/><rect id="rect22348" width="307.144" height="6.777" x="51.009" y="201.897" fill="#FFF" stroke="#000" stroke-miterlimit="10" transform="matrix(0.7071 -0.7071 0.7071 0.7071 -85.2384 204.7872)"/><rect id="rect22350" width="6.777" height="307.161" x="201.192" y="51.704" fill="#FFF" stroke="#000" stroke-miterlimit="10" transform="matrix(0.7071 -0.7071 0.7071 0.7071 -85.2376 204.7867)"/><path id="path22352" fill="#FFF" stroke="#000" stroke-miterlimit="10" d="M247.781,212.289l-36.195,36.195 c-3.869,3.869-10.141,3.869-14.009,0l-36.195-36.195c-3.869-3.869-3.869-10.141,0-14.009l36.195-36.195 c3.869-3.869,10.141-3.869,14.009,0l36.195,36.195C251.649,202.149,251.649,208.421,247.781,212.289z"/><polygon id="polygon22354" fill="#FF442B" stroke="#000" stroke-miterlimit="10" points="186.403 227.285 204.58 176.285 222.758 227.285"/><g id="g22358" opacity=".8"><ellipse id="ellipse22356" cx="358.165" cy="205.298" fill="#159E1F" rx="50.993" ry="51.004" transform="matrix(0.7091 -0.7051 0.7051 0.7091 -40.5618 312.2855)"/></g><path id="path22360" fill="#FFF" stroke="#000" stroke-miterlimit="10" d="M366.101,197.368c-4.374-4.384-11.473-4.393-15.858-0.019 c-4.384,4.374-4.393,11.473-0.019,15.858c4.365,4.375,11.447,4.394,15.835,0.042c4.397-4.335,4.446-11.414,0.111-15.811 C366.147,197.414,366.124,197.391,366.101,197.368z"/><g id="g22364" opacity=".8"><ellipse id="ellipse22362" cx="51.003" cy="205.554" fill="#159E1F" rx="50.993" ry="51.004" transform="matrix(0.7091 -0.7051 0.7051 0.7091 -130.1058 95.767)"/></g><path id="path22366" fill="#FFF" stroke="#000" stroke-miterlimit="10" d="M43.059,213.455c4.374,4.384,11.473,4.393,15.858,0.019 c4.384-4.374,4.393-11.473,0.019-15.858c-4.365-4.375-11.447-4.394-15.835-0.042c-4.397,4.335-4.446,11.414-0.111,15.811 C43.013,213.409,43.036,213.432,43.059,213.455z"/><g id="g22370" opacity=".8"><ellipse id="ellipse22368" cx="204.691" cy="50.988" fill="#159E1F" rx="50.993" ry="51.004" transform="matrix(0.7051 -0.7091 0.7091 0.7051 24.2009 160.1738)"/></g><path id="path22372" fill="#FFF" stroke="#000" stroke-miterlimit="10" d="M212.614,43.055c4.384,4.374,4.393,11.473,0.02,15.858 c-4.374,4.384-11.473,4.393-15.857,0.02c-4.376-4.365-4.395-11.447-0.042-15.835c4.335-4.397,11.414-4.446,15.811-0.111 C212.568,43.009,212.591,43.032,212.614,43.055z"/><g id="g22376" opacity=".8"><ellipse id="ellipse22374" cx="204.576" cy="358.843" fill="#159E1F" rx="50.993" ry="51.004" transform="matrix(0.7051 -0.7091 0.7091 0.7051 -194.1228 250.866)"/></g><path id="path22378" fill="#FFF" stroke="#000" stroke-miterlimit="10" d="M196.663,366.797c-4.384-4.374-4.393-11.473-0.02-15.858 c4.374-4.384,11.473-4.393,15.857-0.02c4.376,4.365,4.395,11.447,0.042,15.835c-4.335,4.397-11.414,4.446-15.811,0.111 C196.709,366.843,196.686,366.82,196.663,366.797z"/><g id="g22382" opacity=".8"><ellipse id="ellipse22380" cx="312.74" cy="97.142" fill="#4EC3E8" rx="50.993" ry="51.004" transform="matrix(0.7091 -0.7051 0.7051 0.7091 22.4877 248.7881)"/></g><path id="path22384" fill="#FFF" stroke="#000" stroke-miterlimit="10" d="M320.675,89.213c-4.374-4.384-11.473-4.393-15.858-0.019 c-4.384,4.374-4.393,11.473-0.019,15.858c4.365,4.375,11.447,4.394,15.835,0.042c4.397-4.335,4.446-11.414,0.111-15.811 C320.721,89.259,320.698,89.236,320.675,89.213z"/><g id="g22388" opacity=".8"><ellipse id="ellipse22386" cx="97.39" cy="97.141" fill="#4EC3E8" rx="50.993" ry="51.004" transform="matrix(0.7091 -0.7051 0.7051 0.7091 -40.1643 96.9355)"/></g><path id="path22390" fill="#FFF" stroke="#000" stroke-miterlimit="10" d="M105.322,89.213c-4.374-4.384-11.473-4.393-15.858-0.019 c-4.384,4.374-4.393,11.473-0.019,15.858c4.365,4.375,11.447,4.394,15.835,0.042c4.397-4.335,4.446-11.414,0.111-15.811 C105.368,89.259,105.345,89.236,105.322,89.213z"/><g id="g22394" opacity=".8"><ellipse id="ellipse22392" cx="312.741" cy="313.453" fill="#4EC3E8" rx="50.993" ry="51.004" transform="matrix(0.7091 -0.7051 0.7051 0.7091 -130.0422 311.7207)"/></g><path id="path22396" fill="#FFF" stroke="#000" stroke-miterlimit="10" d="M320.675,305.523c-4.374-4.384-11.473-4.393-15.858-0.019 c-4.384,4.374-4.393,11.473-0.019,15.858c4.365,4.375,11.447,4.394,15.835,0.042c4.397-4.335,4.446-11.414,0.111-15.811 C320.721,305.569,320.698,305.546,320.675,305.523z"/><g id="g22400" opacity=".8"><ellipse id="ellipse22398" cx="96.254" cy="313.452" fill="#4EC3E8" rx="50.993" ry="51.004" transform="matrix(0.7091 -0.7051 0.7051 0.7091 -193.0249 159.0664)"/></g><path id="path22402" fill="#FFF" stroke="#000" stroke-miterlimit="10" d="M104.189,305.523c-4.374-4.384-11.473-4.393-15.858-0.019 c-4.384,4.374-4.393,11.473-0.019,15.858c4.365,4.375,11.447,4.394,15.835,0.042c4.397-4.335,4.446-11.414,0.111-15.811 C104.235,305.569,104.212,305.546,104.189,305.523z"/><path id="path7676" d="m 242.49828,69.62632 c 7.20007,-7.642839 8.44151,-12.486121 9.7217,-18.999749 l -12.18689,-0.125 c 2.57083,4.089977 3.31842,10.989681 2.46519,19.124749 z" style="opacity:1;fill:#fff;fill-opacity:1;fill-rule:evenodd;stroke:none;stroke-width:1px;stroke-linecap:butt;stroke-linejoin:miter;stroke-opacity:1"/><path style="opacity:1;fill:none;fill-opacity:1;fill-rule:evenodd;stroke:#ffffec;stroke-width:2.51338577;stroke-linecap:butt;stroke-linejoin:miter;stroke-miterlimit:4;stroke-dasharray:none;stroke-opacity:1" id="path7711" d="m 223.94673,38.425681 c -3.13084,3.863564 -7.10954,7.019918 -11.58403,9.189766" transform="rotate(-64.147051,231.71829,22.076203)"/><path style="opacity:1;fill:#fff;fill-opacity:1;fill-rule:evenodd;stroke:none;stroke-width:1px;stroke-linecap:butt;stroke-linejoin:miter;stroke-opacity:1" id="path7831" d="m 166.31619,32.306964 c -7.20007,7.642839 -8.44151,12.486121 -9.7217,18.999749 l 12.18689,0.125 c -2.57083,-4.089977 -3.31842,-10.989681 -2.46519,-19.124749 z"/><path id="path7833" d="m 223.94673,38.425681 c -3.13084,3.863564 -7.10954,7.019918 -11.58403,9.189766" transform="rotate(115.85295,186.30289,33.852031)" style="opacity:1;fill:none;fill-opacity:1;fill-rule:evenodd;stroke:#ffffec;stroke-width:2.51338577;stroke-linecap:butt;stroke-linejoin:miter;stroke-miterlimit:4;stroke-dasharray:none;stroke-opacity:1"/><path style="opacity:1;fill:#fff;fill-opacity:1;fill-rule:evenodd;stroke:none;stroke-width:1px;stroke-linecap:butt;stroke-linejoin:miter;stroke-opacity:1" id="path7854" d="m 242.97368,378.28141 c 7.20007,-7.64284 8.44151,-12.48612 9.7217,-18.99975 l -12.18689,-0.125 c 2.57083,4.08998 3.31842,10.98968 2.46519,19.12475 z"/><path id="path7856" d="m 223.94673,38.425681 c -3.13084,3.863564 -7.10954,7.019918 -11.58403,9.189766" transform="rotate(-64.147051,478.2279,176.02443)" style="opacity:1;fill:none;fill-opacity:1;fill-rule:evenodd;stroke:#ffffec;stroke-width:2.51338577;stroke-linecap:butt;stroke-linejoin:miter;stroke-miterlimit:4;stroke-dasharray:none;stroke-opacity:1"/><path id="path7858" d="m 166.79159,340.96205 c -7.20007,7.64284 -8.44151,12.48613 -9.7217,18.99975 l 12.18689,0.125 c -2.57083,-4.08997 -3.31842,-10.98968 -2.46519,-19.12475 z" style="opacity:1;fill:#fff;fill-opacity:1;fill-rule:evenodd;stroke:none;stroke-width:1px;stroke-linecap:butt;stroke-linejoin:miter;stroke-opacity:1"/><path style="opacity:1;fill:none;fill-opacity:1;fill-rule:evenodd;stroke:#ffffec;stroke-width:2.51338577;stroke-linecap:butt;stroke-linejoin:miter;stroke-miterlimit:4;stroke-dasharray:none;stroke-opacity:1" id="path7860" d="m 223.94673,38.425681 c -3.13084,3.863564 -7.10954,7.019918 -11.58403,9.189766" transform="rotate(115.85295,89.830441,188.32853)"/><path id="path7862" d="m 67.201166,167.03492 c -7.64284,-7.20007 -12.48612,-8.44151 -18.99975,-9.7217 l -0.125,12.18689 c 4.08998,-2.57083 10.98968,-3.31842 19.12475,-2.46519 z" style="opacity:1;fill:#fff;fill-opacity:1;fill-rule:evenodd;stroke:none;stroke-width:1px;stroke-linecap:butt;stroke-linejoin:miter;stroke-opacity:1"/><path style="opacity:1;fill:none;fill-opacity:1;fill-rule:evenodd;stroke:#ffffec;stroke-width:2.51338577;stroke-linecap:butt;stroke-linejoin:miter;stroke-miterlimit:4;stroke-dasharray:none;stroke-opacity:1" id="path7864" d="m 223.94673,38.425681 c -3.13084,3.863564 -7.10954,7.019918 -11.58403,9.189766" transform="rotate(-154.14705,143.55701,124.28207)"/><path style="opacity:1;fill:#fff;fill-opacity:1;fill-rule:evenodd;stroke:none;stroke-width:1px;stroke-linecap:butt;stroke-linejoin:miter;stroke-opacity:1" id="path7866" d="m 29.881816,243.21701 c 7.64284,7.20007 12.48612,8.44151 18.99974,9.7217 l 0.125,-12.18689 c -4.08997,2.57083 -10.98967,3.31842 -19.12474,2.46519 z"/><path id="path7868" d="m 223.94673,38.425681 c -3.13084,3.863564 -7.10954,7.019918 -11.58403,9.189766" transform="rotate(25.85295,-303.69352,-208.85441)" style="opacity:1;fill:none;fill-opacity:1;fill-rule:evenodd;stroke:#ffffec;stroke-width:2.51338577;stroke-linecap:butt;stroke-linejoin:miter;stroke-miterlimit:4;stroke-dasharray:none;stroke-opacity:1"/><path style="opacity:1;fill:#fff;fill-opacity:1;fill-rule:evenodd;stroke:none;stroke-width:1px;stroke-linecap:butt;stroke-linejoin:miter;stroke-opacity:1" id="path7870" d="m 375.62841,166.90992 c -7.64284,-7.20007 -12.48612,-8.44151 -18.99975,-9.7217 l -0.125,12.18689 c 4.08998,-2.57083 10.98968,-3.31842 19.12475,-2.46519 z"/><path id="path7872" d="m 223.94673,38.425681 c -3.13084,3.863564 -7.10954,7.019918 -11.58403,9.189766" transform="rotate(-154.14705,297.75628,88.824931)" style="opacity:1;fill:none;fill-opacity:1;fill-rule:evenodd;stroke:#ffffec;stroke-width:2.51338577;stroke-linecap:butt;stroke-linejoin:miter;stroke-miterlimit:4;stroke-dasharray:none;stroke-opacity:1"/><path id="path7874" d="m 338.30905,243.09201 c 7.64284,7.20007 12.48613,8.44151 18.99975,9.7217 l 0.125,-12.18689 c -4.08997,2.57083 -10.98968,3.31842 -19.12475,2.46519 z" style="opacity:1;fill:#fff;fill-opacity:1;fill-rule:evenodd;stroke:none;stroke-width:1px;stroke-linecap:butt;stroke-linejoin:miter;stroke-opacity:1"/><path style="opacity:1;fill:none;fill-opacity:1;fill-rule:evenodd;stroke:#ffffec;stroke-width:2.51338577;stroke-linecap:butt;stroke-linejoin:miter;stroke-miterlimit:4;stroke-dasharray:none;stroke-opacity:1" id="path7876" d="m 223.94673,38.425681 c -3.13084,3.863564 -7.10954,7.019918 -11.58403,9.189766" transform="rotate(25.85295,-149.20759,462.98827)"/><g style="font-style:normal;font-variant:normal;font-weight:400;font-stretch:normal;font-size:33.33333588px;line-height:125%;font-family:sans-serif;-inkscape-font-specification:sans-serif;letter-spacing:0;word-spacing:0;fill:#fff;fill-opacity:1;stroke:none;stroke-width:1px;stroke-linecap:butt;stroke-linejoin:miter;stroke-opacity:1" id="text7991" aria-label="8"><path style="font-style:normal;font-variant:normal;font-weight:400;font-stretch:normal;font-size:33.33333588px;font-family:FreeSans;-inkscape-font-specification:FreeSans;fill:#fff;fill-opacity:1" id="path23176" d="m 393.54691,204.4351 q 4.03334,1.96667 4.06667,5.9 0,3.73334 -2.86667,5.76667 -2.1,1.53334 -5.06666,1.53334 -4.13334,0 -6.36667,-2.73334 -1.56667,-1.93333 -1.56667,-4.6 0.0333,-3.93333 4.03334,-5.86667 -2.4,-1.5 -2.93334,-3.1 -0.26666,-0.76666 -0.26666,-1.8 0,-3.3 2.7,-5.06666 1.86666,-1.23334 4.4,-1.23334 3.86666,0 5.83333,2.53334 1.26667,1.63333 1.26667,3.76666 0,2.26667 -1.5,3.63334 -0.66667,0.63333 -1.73334,1.26666 z m -3.86666,-8.6 q -2.7,0 -3.7,1.96667 -0.4,0.8 -0.4,1.76667 0,2.33333 2.03333,3.26666 0.93333,0.43334 2.06667,0.43334 2.66666,0 3.66666,-1.9 0.43334,-0.8 0.43334,-1.76667 0,-2.5 -2.16667,-3.4 -0.86667,-0.36667 -1.93333,-0.36667 z m 0,9.9 q -2.96667,0 -4.26667,2.13334 -0.66667,1.1 -0.66667,2.5 0,2.73333 2.2,4 1.16667,0.66667 2.66667,0.66667 3.03333,0 4.33333,-2.16667 0.66667,-1.1 0.66667,-2.5 0,-2.73334 -2.23333,-4 -1.2,-0.63334 -2.7,-0.63334 z"/></g><g style="font-style:normal;font-variant:normal;font-weight:400;font-stretch:normal;font-size:33.33333588px;line-height:125%;font-family:sans-serif;-inkscape-font-specification:sans-serif;letter-spacing:0;word-spacing:0;fill:#fff;fill-opacity:1;stroke:none;stroke-width:1px;stroke-linecap:butt;stroke-linejoin:miter;stroke-opacity:1" id="text7995" aria-label="7"><path style="font-style:normal;font-variant:normal;font-weight:400;font-stretch:normal;font-size:33.33333588px;font-family:FreeSans;-inkscape-font-specification:FreeSans;fill:#fff;fill-opacity:1" id="path23188" d="m 29.044666,193.3601 v 2.46667 q -6.733334,8.96667 -8.933334,18 -0.4,1.56667 -0.666667,3.16667 h -3.133333 q 1.666667,-7.26667 4.766667,-12.96667 1.866667,-3.4 4.933333,-7.76667 H 13.244665 v -2.9 z"/></g><g style="font-style:normal;font-variant:normal;font-weight:400;font-stretch:normal;font-size:33.33333588px;line-height:125%;font-family:sans-serif;-inkscape-font-specification:sans-serif;letter-spacing:0;word-spacing:0;fill:#fff;fill-opacity:1;stroke:none;stroke-width:1px;stroke-linecap:butt;stroke-linejoin:miter;stroke-opacity:1" id="text7999" aria-label="1"><path style="font-style:normal;font-variant:normal;font-weight:400;font-stretch:normal;font-size:33.33333588px;font-family:FreeSans;-inkscape-font-specification:FreeSans;fill:#fff;fill-opacity:1" id="path23194" d="m 205.3844,14.03948 h -5.23333 v -2.100001 q 3.4,-0.433333 4.4,-1.2 1,-0.733333 1.7,-3.0999999 0.0667,-0.2 0.13333,-0.4000001 h 1.93334 v 23.633335 h -2.93334 z"/></g><g style="font-style:normal;font-variant:normal;font-weight:400;font-stretch:normal;font-size:33.33333588px;line-height:125%;font-family:sans-serif;-inkscape-font-specification:sans-serif;letter-spacing:0;word-spacing:0;fill:#fff;fill-opacity:1;stroke:none;stroke-width:1px;stroke-linecap:butt;stroke-linejoin:miter;stroke-opacity:1" id="text8003" aria-label="2"><path style="font-style:normal;font-variant:normal;font-weight:400;font-stretch:normal;font-size:33.33333588px;font-family:FreeSans;-inkscape-font-specification:FreeSans;fill:#fff;fill-opacity:1" id="path23182" d="m 198.36401,386.57573 q 0.26667,-8.16667 7.8,-8.2 4.03333,0 6.16667,2.66667 1.4,1.83333 1.4,4.26666 -0.0333,4.4 -5,7.13334 l -3.33334,1.8 q -3.1,1.66666 -3.9,3.53333 -0.26666,0.6 -0.36666,1.33333 h 12.43333 v 2.9 h -15.73333 q 0.23333,-4.26666 1.9,-6.5 1.43333,-1.86666 4.73333,-3.73333 l 3.06667,-1.73333 q 3.16666,-1.86667 3.2,-4.66667 0,-2.4 -2,-3.7 -1.16667,-0.73333 -2.66667,-0.73333 -4.36667,0 -4.76667,5.43333 0,0.1 0,0.2 z"/></g><path style="opacity:1;fill:#fff;fill-opacity:1;fill-rule:evenodd;stroke:none;stroke-width:1px;stroke-linecap:butt;stroke-linejoin:miter;stroke-opacity:1" id="path7870-3" d="m 273.85356,115.54461 c -7.20006,-7.64285 -8.4415,-12.48613 -9.72169,-18.999752 l 12.18688,-0.125 c -2.57083,4.089972 -3.31842,10.989672 -2.46519,19.124752 z"/><path id="path7872-1" d="m 223.94673,38.425681 c -3.13084,3.863564 -7.10954,7.019918 -11.58403,9.189766" transform="matrix(-0.43606293,-0.89991617,-0.89991617,0.43606293,405.54405,266.89491)" style="opacity:1;fill:none;fill-opacity:1;fill-rule:evenodd;stroke:#ffffec;stroke-width:2.51338577;stroke-linecap:butt;stroke-linejoin:miter;stroke-miterlimit:4;stroke-dasharray:none;stroke-opacity:1"/><path id="path7874-4" d="m 350.03565,78.225248 c 7.20007,7.64284 8.44151,12.48613 9.7217,18.99975 l -12.18689,0.125 c 2.57083,-4.08997 3.31842,-10.98968 2.46519,-19.12475 z" style="opacity:1;fill:#fff;fill-opacity:1;fill-rule:evenodd;stroke:none;stroke-width:1px;stroke-linecap:butt;stroke-linejoin:miter;stroke-opacity:1"/><path style="opacity:1;fill:none;fill-opacity:1;fill-rule:evenodd;stroke:#ffffec;stroke-width:2.51338577;stroke-linecap:butt;stroke-linejoin:miter;stroke-miterlimit:4;stroke-dasharray:none;stroke-opacity:1" id="path7876-4" d="m 223.94673,38.425681 c -3.13084,3.863564 -7.10954,7.019918 -11.58403,9.189766" transform="matrix(0.43606294,0.89991617,0.89991617,-0.43606294,218.34518,-73.12506)"/><g style="font-style:normal;font-variant:normal;font-weight:400;font-stretch:normal;font-size:33.33333588px;line-height:125%;font-family:sans-serif;-inkscape-font-specification:sans-serif;letter-spacing:0;word-spacing:0;fill:#fff;fill-opacity:1;stroke:none;stroke-width:1px;stroke-linecap:butt;stroke-linejoin:miter;stroke-opacity:1" id="text7991-3" aria-label="3"><path style="font-style:normal;font-variant:normal;font-weight:400;font-stretch:normal;font-size:33.33333588px;font-family:FreeSans;-inkscape-font-specification:FreeSans;fill:#fff;fill-opacity:1" id="path23173" d="m 313.20093,54.920636 q -3.8,0 -4.4,3.666667 -0.0667,0.633334 -0.1,1.4 h -2.93334 q 0.13334,-7 6.33334,-7.6 0.53333,-0.03333 1.06667,-0.03333 4.66666,0 6.4,3.133333 0.8,1.466667 0.8,3.366667 -0.0333,3.6 -3.3,4.9 3.1,1.066667 3.76666,3.600001 0.23334,0.9 0.23334,2.033333 0,4.1 -3.13334,6.100001 -2.03333,1.266666 -4.86666,1.266666 -6.53334,0 -7.63334,-6.133333 -0.1,-0.733334 -0.16667,-1.500001 h 2.93334 q 0.26666,4.400001 3.76666,4.933334 0.56667,0.1 1.20001,0.1 3.46666,0 4.53333,-2.633333 0.36667,-0.966667 0.36667,-2.1 -0.0667,-4.266667 -4.9,-4.300001 l -1.23334,0.03333 h -0.36667 V 62.65397 q 3.76667,-0.06667 4.90001,-1.1 0.9,-0.866666 0.9,-2.6 0,-2.833333 -2.33334,-3.733334 -0.83333,-0.3 -1.83333,-0.3 z"/></g><path style="opacity:1;fill:#fff;fill-opacity:1;fill-rule:evenodd;stroke:none;stroke-width:1px;stroke-linecap:butt;stroke-linejoin:miter;stroke-opacity:1" id="path7870-5" d="m 56.839447,331.85143 c -7.20007,-7.64284 -8.44151,-12.48612 -9.7217,-18.99975 l 12.18689,-0.125 c -2.57083,4.08998 -3.31842,10.98968 -2.46519,19.12475 z"/><path id="path7872-2" d="m 223.94673,38.425681 c -3.13084,3.863564 -7.10954,7.019918 -11.58403,9.189766" transform="matrix(-0.43606293,-0.89991617,-0.89991617,0.43606293,188.52993,483.20174)" style="opacity:1;fill:none;fill-opacity:1;fill-rule:evenodd;stroke:#ffffec;stroke-width:2.51338577;stroke-linecap:butt;stroke-linejoin:miter;stroke-miterlimit:4;stroke-dasharray:none;stroke-opacity:1"/><path id="path7874-1" d="m 133.02154,294.53207 c 7.20007,7.64284 8.44151,12.48613 9.7217,18.99975 l -12.18689,0.125 c 2.57083,-4.08997 3.31842,-10.98968 2.46519,-19.12475 z" style="opacity:1;fill:#fff;fill-opacity:1;fill-rule:evenodd;stroke:none;stroke-width:1px;stroke-linecap:butt;stroke-linejoin:miter;stroke-opacity:1"/><path style="opacity:1;fill:none;fill-opacity:1;fill-rule:evenodd;stroke:#ffffec;stroke-width:2.51338577;stroke-linecap:butt;stroke-linejoin:miter;stroke-miterlimit:4;stroke-dasharray:none;stroke-opacity:1" id="path7876-6" d="m 223.94673,38.425681 c -3.13084,3.863564 -7.10954,7.019918 -11.58403,9.189766" transform="matrix(0.43606294,0.89991617,0.89991617,-0.43606294,1.331067,143.18179)"/><g style="font-style:normal;font-variant:normal;font-weight:400;font-stretch:normal;font-size:33.33333588px;line-height:125%;font-family:sans-serif;-inkscape-font-specification:sans-serif;letter-spacing:0;word-spacing:0;fill:#fff;fill-opacity:1;stroke:none;stroke-width:1px;stroke-linecap:butt;stroke-linejoin:miter;stroke-opacity:1" id="text7991-1" aria-label="6"><path style="font-style:normal;font-variant:normal;font-weight:400;font-stretch:normal;font-size:33.33333588px;font-family:FreeSans;-inkscape-font-specification:FreeSans;fill:#fff;fill-opacity:1" id="path23185" d="m 88.765098,347.07531 q 0,-10.3 5.7,-12.4 1.3,-0.46667 2.766667,-0.46667 3.833335,0 5.666665,3.10001 0.76667,1.33333 1.03334,3.06666 h -2.93334 q -0.6,-2.93333 -3.033332,-3.46666 -0.466666,-0.1 -0.933333,-0.1 -3.7,0 -4.833334,4.8 -0.4,1.83333 -0.433333,4.16666 1.966667,-2.63333 5.433334,-2.63333 3.699998,0 5.766668,2.76667 1.46667,2 1.46667,4.73333 0,3.96667 -2.73334,6.23333 -2.099998,1.73334 -4.999998,1.73334 -7.900001,-0.0667 -7.933334,-11.53334 z m 8.066667,-1.33333 q -2.833334,0 -4.166667,2.2 -0.733333,1.2 -0.733333,2.76667 0,2.86666 2.033333,4.4 1.2,0.9 2.766667,0.9 2.533333,0 3.866665,-2.1 0.83334,-1.33334 0.83334,-3.03334 0,-3.4 -2.366672,-4.63333 -1,-0.5 -2.233333,-0.5 z"/></g><path id="path23126" d="m 57.890959,116.10595 c -7.20006,-7.64285 -8.4415,-12.48613 -9.72169,-18.999756 l 12.18688,-0.125 c -2.57083,4.089976 -3.31842,10.989676 -2.46519,19.124756 z" style="opacity:1;fill:#fff;fill-opacity:1;fill-rule:evenodd;stroke:none;stroke-width:1px;stroke-linecap:butt;stroke-linejoin:miter;stroke-opacity:1"/><path style="opacity:1;fill:none;fill-opacity:1;fill-rule:evenodd;stroke:#ffffec;stroke-width:2.51338577;stroke-linecap:butt;stroke-linejoin:miter;stroke-miterlimit:4;stroke-dasharray:none;stroke-opacity:1" id="path23128" d="m 223.94673,38.425681 c -3.13084,3.863564 -7.10954,7.019918 -11.58403,9.189766" transform="matrix(-0.43606293,-0.89991617,-0.89991617,0.43606293,189.58145,267.45625)"/><path style="opacity:1;fill:#fff;fill-opacity:1;fill-rule:evenodd;stroke:none;stroke-width:1px;stroke-linecap:butt;stroke-linejoin:miter;stroke-opacity:1" id="path23130" d="m 134.07305,78.786584 c 7.20007,7.64284 8.44151,12.48613 9.7217,18.99975 l -12.18689,0.125 c 2.57083,-4.08997 3.31842,-10.98968 2.46519,-19.12475 z"/><path id="path23132" d="m 223.94673,38.425681 c -3.13084,3.863564 -7.10954,7.019918 -11.58403,9.189766" transform="matrix(0.43606294,0.89991617,0.89991617,-0.43606294,2.3825795,-72.563724)" style="opacity:1;fill:none;fill-opacity:1;fill-rule:evenodd;stroke:#ffffec;stroke-width:2.51338577;stroke-linecap:butt;stroke-linejoin:miter;stroke-miterlimit:4;stroke-dasharray:none;stroke-opacity:1"/><g style="font-style:normal;font-variant:normal;font-weight:400;font-stretch:normal;font-size:33.33333588px;line-height:125%;font-family:sans-serif;-inkscape-font-specification:sans-serif;letter-spacing:0;word-spacing:0;fill:#fff;fill-opacity:1;stroke:none;stroke-width:1px;stroke-linecap:butt;stroke-linejoin:miter;stroke-opacity:1" id="text23136" aria-label="5"><path style="font-style:normal;font-variant:normal;font-weight:400;font-stretch:normal;font-size:33.33333588px;font-family:FreeSans;-inkscape-font-specification:FreeSans;fill:#fff;fill-opacity:1" id="path23191" d="m 104.105,52.915302 v 2.9 h -9.833332 l -0.933333,6.600001 q 2,-1.433333 4.366667,-1.433333 3.999998,0 6.133338,2.9 1.5,2.066667 1.5,4.966667 0,4.3 -2.9,6.7 -2.16667,1.766667 -5.200005,1.766667 -6.533333,0 -7.766667,-6.266667 -0.03333,-0.1 -0.06667,-0.3 h 2.933334 q 1.1,3.933334 4.833334,3.966667 3.366671,0 4.633331,-2.7 0.53334,-1.233334 0.53334,-2.766667 0,-3.633334 -2.533338,-5.033334 -1.166667,-0.633333 -2.633333,-0.633333 -2.133334,0 -3.633334,1.433333 -0.333333,0.366667 -0.7,0.766667 h -2.7 l 1.766667,-12.866668 z"/></g><path id="path23142" d="m 273.03004,332.00493 c -7.20007,-7.64284 -8.44151,-12.48612 -9.7217,-18.99975 l 12.18689,-0.125 c -2.57083,4.08998 -3.31842,10.98968 -2.46519,19.12475 z" style="opacity:1;fill:#fff;fill-opacity:1;fill-rule:evenodd;stroke:none;stroke-width:1px;stroke-linecap:butt;stroke-linejoin:miter;stroke-opacity:1"/><path style="opacity:1;fill:none;fill-opacity:1;fill-rule:evenodd;stroke:#ffffec;stroke-width:2.51338577;stroke-linecap:butt;stroke-linejoin:miter;stroke-miterlimit:4;stroke-dasharray:none;stroke-opacity:1" id="path23144" d="m 223.94673,38.425681 c -3.13084,3.863564 -7.10954,7.019918 -11.58403,9.189766" transform="matrix(-0.43606293,-0.89991617,-0.89991617,0.43606293,404.72052,483.35524)"/><path style="opacity:1;fill:#fff;fill-opacity:1;fill-rule:evenodd;stroke:none;stroke-width:1px;stroke-linecap:butt;stroke-linejoin:miter;stroke-opacity:1" id="path23146" d="m 349.21213,294.68557 c 7.20007,7.64284 8.44151,12.48613 9.7217,18.99975 l -12.18689,0.125 c 2.57083,-4.08997 3.31842,-10.98968 2.46519,-19.12475 z"/><path id="path23148" d="m 223.94673,38.425681 c -3.13084,3.863564 -7.10954,7.019918 -11.58403,9.189766" transform="matrix(0.43606294,0.89991617,0.89991617,-0.43606294,217.52166,143.33529)" style="opacity:1;fill:none;fill-opacity:1;fill-rule:evenodd;stroke:#ffffec;stroke-width:2.51338577;stroke-linecap:butt;stroke-linejoin:miter;stroke-miterlimit:4;stroke-dasharray:none;stroke-opacity:1"/><g style="font-style:normal;font-variant:normal;font-weight:400;font-stretch:normal;font-size:33.33333588px;line-height:125%;font-family:sans-serif;-inkscape-font-specification:sans-serif;letter-spacing:0;word-spacing:0;fill:#fff;fill-opacity:1;stroke:none;stroke-width:1px;stroke-linecap:butt;stroke-linejoin:miter;stroke-opacity:1" id="text23152" aria-label="4"><path style="font-style:normal;font-variant:normal;font-weight:400;font-stretch:normal;font-size:33.33333588px;font-family:FreeSans;-inkscape-font-specification:FreeSans;fill:#fff;fill-opacity:1" id="path23179" d="m 314.42237,352.32882 h -9.96667 v -3.1 l 10.73334,-14.86667 h 2.16666 v 15.33333 h 3.5 v 2.63334 h -3.5 v 5.66666 h -2.93333 z m 0,-2.63334 v -10.33333 l -7.4,10.33333 z"/></g></svg>