<svg xmlns="http://www.w3.org/2000/svg" xmlns:svg="http://www.w3.org/2000/svg" id="draw" x="0" y="0" enable-background="new 0 0 343.449 265.633" version="1.1" viewBox="0 0 343.449 265.633" xml:space="preserve"><metadata id="metadata28099"/><title id="title28056">QuadRotorWide</title><rect id="rect28058" width="133.572" height="6.777" x="57.626" y="163.91" fill="#FFF" stroke="#000" stroke-miterlimit="10" transform="matrix(0.7071 -0.7071 0.7071 0.7071 -81.8586 136.9733)"/><rect id="rect28060" width="133.572" height="6.777" x="162.941" y="83.775" fill="#FFF" stroke="#000" stroke-miterlimit="10" transform="matrix(0.8697 -0.4936 0.4936 0.8697 -13.0875 124.754)"/><rect id="rect28062" width="6.777" height="133.469" x="215.517" y="100.607" fill="#FFF" stroke="#000" stroke-miterlimit="10" transform="matrix(0.7071 -0.7071 0.7071 0.7071 -54.2128 203.8027)"/><rect id="rect28064" width="6.777" height="133.692" x="110.336" y="20.067" fill="#FFF" stroke="#000" stroke-miterlimit="10" transform="matrix(0.4969 -0.8678 0.8678 0.4969 -18.2082 142.4197)"/><path id="path28066" fill="#FFF" stroke="#000" stroke-miterlimit="10" d="M214.838,127.079l-36.195,36.195 c-3.869,3.869-10.141,3.869-14.009,0l-36.195-36.195c-3.869-3.869-3.869-10.141,0-14.009l36.195-36.195 c3.869-3.869,10.141-3.869,14.009,0l36.195,36.195C218.707,116.939,218.707,123.211,214.838,127.079z"/><polygon id="polygon28068" fill="#FF442B" stroke="#000" stroke-miterlimit="10" points="153.46 142.074 171.637 91.074 189.815 142.074"/><g id="g28072" opacity=".8"><ellipse id="ellipse28070" cx="292.447" cy="51.559" fill="#4EC3E8" rx="50.993" ry="51.004" transform="matrix(0.7091 -0.7051 0.7051 0.7091 48.7259 221.2168)"/></g><path id="path28074" fill="#FFF" stroke="#000" stroke-miterlimit="10" d="M300.322,42.673c-4.374-4.384-11.473-4.393-15.858-0.019 c-4.384,4.374-4.393,11.473-0.019,15.858c4.365,4.375,11.447,4.394,15.835,0.042c4.397-4.335,4.446-11.414,0.111-15.811 C300.368,42.719,300.345,42.696,300.322,42.673z"/><g id="g28078" opacity=".8"><ellipse id="ellipse28076" cx="77.541" cy="214.641" fill="#4EC3E8" rx="50.993" ry="51.004" transform="matrix(0.7091 -0.7051 0.7051 0.7091 -128.793 117.124)"/></g><path id="path28080" fill="#FFF" stroke="#000" stroke-miterlimit="10" d="M69.604,222.554c4.374,4.384,11.473,4.393,15.858,0.019 c4.384-4.374,4.393-11.473,0.019-15.858c-4.365-4.375-11.447-4.394-15.835-0.042c-4.397,4.335-4.446,11.414-0.111,15.811 C69.558,222.508,69.581,222.531,69.604,222.554z"/><g id="g28084" opacity=".8"><ellipse id="ellipse28082" cx="50.999" cy="50.996" fill="#159E1F" rx="50.993" ry="51.004" transform="matrix(0.7051 -0.7091 0.7091 0.7051 -21.1217 51.1984)"/></g><path id="path28086" fill="#FFF" stroke="#000" stroke-miterlimit="10" d="M58.914,43.059c4.384,4.374,4.393,11.473,0.019,15.858 c-4.374,4.384-11.473,4.393-15.858,0.019c-4.376-4.365-4.394-11.447-0.042-15.835c4.335-4.397,11.414-4.446,15.811-0.111 C58.868,43.013,58.891,43.036,58.914,43.059z"/><g id="g28090" opacity=".8"><ellipse id="ellipse28088" cx="266.371" cy="214.484" fill="#159E1F" rx="50.993" ry="51.004" transform="matrix(0.7051 -0.7091 0.7091 0.7051 -73.5417 252.1174)"/></g><path id="path28092" fill="#FFF" stroke="#000" stroke-miterlimit="10" d="M258.451,222.431c-4.384-4.374-4.393-11.473-0.019-15.858 c4.374-4.384,11.473-4.393,15.858-0.02c4.376,4.365,4.394,11.447,0.042,15.835c-4.335,4.397-11.414,4.446-15.811,0.111 C258.497,222.477,258.474,222.454,258.451,222.431z"/><path id="path7676" d="m 88.816253,69.523526 c 7.20007,-7.64284 8.44151,-12.48612 9.7217,-18.99975 l -12.18689,-0.125 c 2.57083,4.08998 3.31842,10.98968 2.46519,19.12475 z" style="opacity:1;fill:#fff;fill-opacity:1;fill-rule:evenodd;stroke:none;stroke-width:1px;stroke-linecap:butt;stroke-linejoin:miter;stroke-opacity:1"/><path style="opacity:1;fill:none;fill-opacity:1;fill-rule:evenodd;stroke:#ffffec;stroke-width:2.51338577;stroke-linecap:butt;stroke-linejoin:miter;stroke-miterlimit:4;stroke-dasharray:none;stroke-opacity:1" id="path7711" d="m 223.94673,38.425681 c -3.13084,3.863564 -7.10954,7.019918 -11.58403,9.189766" transform="rotate(-64.147051,154.79526,144.64569)"/><path style="opacity:1;fill:#fff;fill-opacity:1;fill-rule:evenodd;stroke:none;stroke-width:1px;stroke-linecap:butt;stroke-linejoin:miter;stroke-opacity:1" id="path7831" d="m 12.634173,32.204166 c -7.2000704,7.64284 -8.4415104,12.48613 -9.7217004,18.99975 l 12.1868904,0.125 c -2.57083,-4.08997 -3.31842,-10.98968 -2.46519,-19.12475 z"/><path id="path7833" d="m 223.94673,38.425681 c -3.13084,3.863564 -7.10954,7.019918 -11.58403,9.189766" transform="rotate(115.85295,109.4941,-14.352177)" style="opacity:1;fill:none;fill-opacity:1;fill-rule:evenodd;stroke:#ffffec;stroke-width:2.51338577;stroke-linecap:butt;stroke-linejoin:miter;stroke-miterlimit:4;stroke-dasharray:none;stroke-opacity:1"/><text style="font-style:normal;font-variant:normal;font-weight:400;font-stretch:normal;font-size:33.33333588px;line-height:125%;font-family:sans-serif;-inkscape-font-specification:sans-serif;letter-spacing:0;word-spacing:0;fill:#fff;fill-opacity:1;stroke:none;stroke-width:1px;stroke-linecap:butt;stroke-linejoin:miter;stroke-opacity:1" id="text7999" x="43.069" y="30.77" xml:space="preserve"><tspan id="tspan7997" x="43.069" y="30.77" style="font-style:normal;font-variant:normal;font-weight:400;font-stretch:normal;font-size:33.33333588px;font-family:FreeSans;-inkscape-font-specification:FreeSans;fill:#fff;fill-opacity:1">3</tspan></text><path style="opacity:1;fill:#fff;fill-opacity:1;fill-rule:evenodd;stroke:none;stroke-width:1px;stroke-linecap:butt;stroke-linejoin:miter;stroke-opacity:1" id="path14492" d="m 88.816253,69.523526 c 7.20007,-7.64284 8.44151,-12.48612 9.7217,-18.99975 l -12.18689,-0.125 c 2.57083,4.08998 3.31842,10.98968 2.46519,19.12475 z"/><path id="path14494" d="m 223.94673,38.425681 c -3.13084,3.863564 -7.10954,7.019918 -11.58403,9.189766" transform="rotate(-64.147051,154.79526,144.64569)" style="opacity:1;fill:none;fill-opacity:1;fill-rule:evenodd;stroke:#ffffec;stroke-width:2.51338577;stroke-linecap:butt;stroke-linejoin:miter;stroke-miterlimit:4;stroke-dasharray:none;stroke-opacity:1"/><path id="path14496" d="m 12.634173,32.204166 c -7.2000704,7.64284 -8.4415104,12.48613 -9.7217004,18.99975 l 12.1868904,0.125 c -2.57083,-4.08997 -3.31842,-10.98968 -2.46519,-19.12475 z" style="opacity:1;fill:#fff;fill-opacity:1;fill-rule:evenodd;stroke:none;stroke-width:1px;stroke-linecap:butt;stroke-linejoin:miter;stroke-opacity:1"/><path style="opacity:1;fill:none;fill-opacity:1;fill-rule:evenodd;stroke:#ffffec;stroke-width:2.51338577;stroke-linecap:butt;stroke-linejoin:miter;stroke-miterlimit:4;stroke-dasharray:none;stroke-opacity:1" id="path14498" d="m 223.94673,38.425681 c -3.13084,3.863564 -7.10954,7.019918 -11.58403,9.189766" transform="rotate(115.85295,109.4941,-14.352177)"/><g style="font-style:normal;font-variant:normal;font-weight:400;font-stretch:normal;font-size:33.33333588px;line-height:125%;font-family:sans-serif;-inkscape-font-specification:sans-serif;letter-spacing:0;word-spacing:0;fill:#fff;fill-opacity:1;stroke:none;stroke-width:1px;stroke-linecap:butt;stroke-linejoin:miter;stroke-opacity:1" id="text14502" aria-label="3"><path style="font-style:normal;font-variant:normal;font-weight:400;font-stretch:normal;font-size:33.33333588px;font-family:FreeSans;-inkscape-font-specification:FreeSans;fill:#fff;fill-opacity:1" id="path28798" d="m 52.069039,9.7033513 q -3.8,0 -4.4,3.6666667 -0.06667,0.633334 -0.1,1.4 h -2.933334 q 0.133334,-7.0000002 6.333334,-7.6000003 0.533333,-0.033333 1.066667,-0.033333 4.666667,0 6.4,3.1333336 0.8,1.466667 0.8,3.366667 -0.03333,3.6 -3.3,4.9 3.1,1.066667 3.766667,3.600001 0.233333,0.9 0.233333,2.033333 0,4.1 -3.133333,6.1 -2.033334,1.266667 -4.866667,1.266667 -6.533334,0 -7.633334,-6.133334 -0.1,-0.733333 -0.166667,-1.5 h 2.933334 q 0.266666,4.400001 3.766667,4.933334 0.566666,0.1 1.2,0.1 3.466667,0 4.533333,-2.633333 0.366667,-0.966667 0.366667,-2.100001 -0.06667,-4.266667 -4.9,-4.3 l -1.233334,0.03333 h -0.366666 v -2.5 q 3.766667,-0.06667 4.9,-1.1 0.9,-0.866667 0.9,-2.6 0,-2.833334 -2.333333,-3.733334 -0.833334,-0.2999997 -1.833334,-0.2999997 z"/></g><path id="path7676-2" d="m 303.8824,233.2096 c 7.20007,-7.64284 8.44151,-12.48612 9.7217,-18.99975 l -12.18689,-0.125 c 2.57083,4.08998 3.31842,10.98968 2.46519,19.12475 z" style="opacity:1;fill:#fff;fill-opacity:1;fill-rule:evenodd;stroke:none;stroke-width:1px;stroke-linecap:butt;stroke-linejoin:miter;stroke-opacity:1"/><path style="opacity:1;fill:none;fill-opacity:1;fill-rule:evenodd;stroke:#ffffec;stroke-width:2.51338577;stroke-linecap:butt;stroke-linejoin:miter;stroke-miterlimit:4;stroke-dasharray:none;stroke-opacity:1" id="path7711-9" d="m 223.94673,38.425681 c -3.13084,3.863564 -7.10954,7.019918 -11.58403,9.189766" transform="rotate(-64.147051,392.93132,54.890233)"/><path style="opacity:1;fill:#fff;fill-opacity:1;fill-rule:evenodd;stroke:none;stroke-width:1px;stroke-linecap:butt;stroke-linejoin:miter;stroke-opacity:1" id="path7831-7" d="m 227.70031,195.89024 c -7.20007,7.64284 -8.44151,12.48612 -9.7217,18.99975 l 12.18689,0.125 c -2.57083,-4.08998 -3.31842,-10.98968 -2.46519,-19.12475 z"/><path id="path7833-9" d="m 223.94673,38.425681 c -3.13084,3.863564 -7.10954,7.019918 -11.58403,9.189766" transform="rotate(115.85295,165.73982,134.87699)" style="opacity:1;fill:none;fill-opacity:1;fill-rule:evenodd;stroke:#ffffec;stroke-width:2.51338577;stroke-linecap:butt;stroke-linejoin:miter;stroke-miterlimit:4;stroke-dasharray:none;stroke-opacity:1"/><g style="font-style:normal;font-variant:normal;font-weight:400;font-stretch:normal;font-size:33.33333588px;line-height:125%;font-family:sans-serif;-inkscape-font-specification:sans-serif;letter-spacing:0;word-spacing:0;fill:#fff;fill-opacity:1;stroke:none;stroke-width:1px;stroke-linecap:butt;stroke-linejoin:miter;stroke-opacity:1" id="text7999-0" aria-label="4"><path style="font-style:normal;font-variant:normal;font-weight:400;font-stretch:normal;font-size:33.33333588px;font-family:FreeSans;-inkscape-font-specification:FreeSans;fill:#fff;fill-opacity:1" id="path28792" d="m 268.59809,253.04351 h -9.96667 v -3.1 l 10.73334,-14.86667 h 2.16666 v 15.33333 h 3.5 v 2.63334 h -3.5 v 5.66666 h -2.93333 z m 0,-2.63334 v -10.33333 l -7.4,10.33333 z"/></g><path style="opacity:1;fill:#fff;fill-opacity:1;fill-rule:evenodd;stroke:none;stroke-width:1px;stroke-linecap:butt;stroke-linejoin:miter;stroke-opacity:1" id="path7870" d="m 252.93778,70.335473 c -7.20006,-7.64284 -8.4415,-12.48612 -9.72169,-18.99975 l 12.18688,-0.125 c -2.57083,4.08998 -3.31842,10.98968 -2.46519,19.12475 z"/><path id="path7872" d="m 223.94673,38.425681 c -3.13084,3.863564 -7.10954,7.019918 -11.58403,9.189766" transform="matrix(-0.43606293,-0.89991617,-0.89991617,0.43606293,384.62827,221.68579)" style="opacity:1;fill:none;fill-opacity:1;fill-rule:evenodd;stroke:#ffffec;stroke-width:2.51338577;stroke-linecap:butt;stroke-linejoin:miter;stroke-miterlimit:4;stroke-dasharray:none;stroke-opacity:1"/><path id="path7874" d="m 329.11987,33.016113 c 7.20007,7.64284 8.44151,12.48613 9.7217,18.99975 l -12.18689,0.125 c 2.57083,-4.08997 3.31842,-10.98968 2.46519,-19.12475 z" style="opacity:1;fill:#fff;fill-opacity:1;fill-rule:evenodd;stroke:none;stroke-width:1px;stroke-linecap:butt;stroke-linejoin:miter;stroke-opacity:1"/><path style="opacity:1;fill:none;fill-opacity:1;fill-rule:evenodd;stroke:#ffffec;stroke-width:2.51338577;stroke-linecap:butt;stroke-linejoin:miter;stroke-miterlimit:4;stroke-dasharray:none;stroke-opacity:1" id="path7876" d="m 223.94673,38.425681 c -3.13084,3.863564 -7.10954,7.019918 -11.58403,9.189766" transform="matrix(0.43606294,0.89991617,0.89991617,-0.43606294,197.4294,-118.33418)"/><g style="font-style:normal;font-variant:normal;font-weight:400;font-stretch:normal;font-size:33.33333588px;line-height:125%;font-family:sans-serif;-inkscape-font-specification:sans-serif;letter-spacing:0;word-spacing:0;fill:#fff;fill-opacity:1;stroke:none;stroke-width:1px;stroke-linecap:butt;stroke-linejoin:miter;stroke-opacity:1" id="text7991" aria-label="1"><path style="font-style:normal;font-variant:normal;font-weight:400;font-stretch:normal;font-size:33.33333588px;font-family:FreeSans;-inkscape-font-specification:FreeSans;fill:#fff;fill-opacity:1" id="path28795" d="m 292.76279,13.868064 h -5.23333 v -2.1 q 3.4,-0.433333 4.4,-1.2 1,-0.7333334 1.7,-3.1000003 0.0667,-0.2 0.13333,-0.4 h 1.93333 V 30.701399 h -2.93333 z"/></g><path style="opacity:1;fill:#fff;fill-opacity:1;fill-rule:evenodd;stroke:none;stroke-width:1px;stroke-linecap:butt;stroke-linejoin:miter;stroke-opacity:1" id="path7870-5" d="m 38.080061,233.18528 c -7.20007,-7.64284 -8.44151,-12.48612 -9.7217,-18.99975 l 12.18689,-0.125 c -2.57083,4.08998 -3.31842,10.98968 -2.46519,19.12475 z"/><path id="path7872-2" d="m 223.94673,38.425681 c -3.13084,3.863564 -7.10954,7.019918 -11.58403,9.189766" transform="matrix(-0.43606293,-0.89991617,-0.89991617,0.43606293,169.77053,384.53559)" style="opacity:1;fill:none;fill-opacity:1;fill-rule:evenodd;stroke:#ffffec;stroke-width:2.51338577;stroke-linecap:butt;stroke-linejoin:miter;stroke-miterlimit:4;stroke-dasharray:none;stroke-opacity:1"/><path id="path7874-1" d="m 114.26215,195.86592 c 7.20007,7.64284 8.44151,12.48613 9.7217,18.99975 l -12.18689,0.125 c 2.57083,-4.08997 3.31842,-10.98968 2.46519,-19.12475 z" style="opacity:1;fill:#fff;fill-opacity:1;fill-rule:evenodd;stroke:none;stroke-width:1px;stroke-linecap:butt;stroke-linejoin:miter;stroke-opacity:1"/><path style="opacity:1;fill:none;fill-opacity:1;fill-rule:evenodd;stroke:#ffffec;stroke-width:2.51338577;stroke-linecap:butt;stroke-linejoin:miter;stroke-miterlimit:4;stroke-dasharray:none;stroke-opacity:1" id="path7876-6" d="m 223.94673,38.425681 c -3.13084,3.863564 -7.10954,7.019918 -11.58403,9.189766" transform="matrix(0.43606294,0.89991617,0.89991617,-0.43606294,-17.428319,44.515624)"/><g style="font-style:normal;font-variant:normal;font-weight:400;font-stretch:normal;font-size:33.33333588px;line-height:125%;font-family:sans-serif;-inkscape-font-specification:sans-serif;letter-spacing:0;word-spacing:0;fill:#fff;fill-opacity:1;stroke:none;stroke-width:1px;stroke-linecap:butt;stroke-linejoin:miter;stroke-opacity:1" id="text7991-1" aria-label="2"><path style="font-style:normal;font-variant:normal;font-weight:400;font-stretch:normal;font-size:33.33333588px;font-family:FreeSans;-inkscape-font-specification:FreeSans;fill:#fff;fill-opacity:1" id="path28789" d="m 70.239032,243.74242 q 0.266666,-8.16667 7.8,-8.2 4.033334,0 6.166667,2.66666 1.4,1.83334 1.4,4.26667 -0.03333,4.4 -5,7.13333 l -3.333334,1.8 q -3.1,1.66667 -3.9,3.53334 -0.266667,0.6 -0.366667,1.33333 h 12.433335 v 2.9 H 69.705698 q 0.233334,-4.26667 1.9,-6.5 1.433334,-1.86667 4.733334,-3.73333 l 3.066667,-1.73334 q 3.166667,-1.86666 3.2,-4.66666 0,-2.4 -2,-3.7 -1.166667,-0.73334 -2.666667,-0.73334 -4.366667,0 -4.766667,5.43334 0,0.1 0,0.2 z"/></g></svg>