<svg xmlns="http://www.w3.org/2000/svg" xmlns:svg="http://www.w3.org/2000/svg" id="svg4553" width="627.866" height="209.515" version="1.1" viewBox="0 0 166.123 55.434"><defs id="defs4547"><marker id="marker4908" orient="auto" refX="0" refY="0" style="overflow:visible"><path id="path4906" d="M 8.7185878,4.0337352 -2.2072895,0.01601326 8.7185884,-4.0017078 c -1.7454984,2.3720609 -1.7354408,5.6174519 -6e-7,8.035443 z" transform="matrix(1.1,0,0,1.1,1.1,0)" style="fill:#000;fill-opacity:1;fill-rule:evenodd;stroke:#000;stroke-width:.625;stroke-linejoin:round;stroke-opacity:1"/></marker><marker id="Arrow2Lstart" orient="auto" refX="0" refY="0" style="overflow:visible"><path id="path4540" d="M 8.7185878,4.0337352 -2.2072895,0.01601326 8.7185884,-4.0017078 c -1.7454984,2.3720609 -1.7354408,5.6174519 -6e-7,8.035443 z" transform="matrix(1.1,0,0,1.1,1.1,0)" style="fill:#000;fill-opacity:1;fill-rule:evenodd;stroke:#000;stroke-width:.625;stroke-linejoin:round;stroke-opacity:1"/></marker><marker style="overflow:visible" id="marker3113" orient="auto" refX="0" refY="0"><path style="fill:#000;fill-opacity:1;fill-rule:evenodd;stroke:#000;stroke-width:.625;stroke-linejoin:round;stroke-opacity:1" id="path3111" d="M 8.7185878,4.0337352 -2.2072895,0.01601326 8.7185884,-4.0017078 c -1.7454984,2.3720609 -1.7354408,5.6174519 -6e-7,8.035443 z" transform="scale(0.6)"/></marker><marker id="Arrow2Mend" orient="auto" refX="0" refY="0" style="overflow:visible"><path id="path1414" d="M 8.7185878,4.0337352 -2.2072895,0.01601326 8.7185884,-4.0017078 c -1.7454984,2.3720609 -1.7354408,5.6174519 -6e-7,8.035443 z" transform="scale(-0.6)" style="fill:#e31a1c;fill-opacity:1;fill-rule:evenodd;stroke:#e31a1c;stroke-width:.625;stroke-linejoin:round;stroke-opacity:1"/></marker><marker id="marker2195" orient="auto" refX="0" refY="0" style="overflow:visible"><path id="path2193" d="M 8.7185878,4.0337352 -2.2072895,0.01601326 8.7185884,-4.0017078 c -1.7454984,2.3720609 -1.7354408,5.6174519 -6e-7,8.035443 z" transform="matrix(-1.1,0,0,-1.1,-1.1,0)" style="fill:#000;fill-opacity:1;fill-rule:evenodd;stroke:#000;stroke-width:.625;stroke-linejoin:round;stroke-opacity:1"/></marker><marker id="marker2119" orient="auto" refX="0" refY="0" style="overflow:visible"><path id="path2117" d="M 0,0 5,-5 -12.5,0 5,5 Z" transform="matrix(-0.4,0,0,-0.4,-4,0)" style="fill:#000;fill-opacity:1;fill-rule:evenodd;stroke:#000;stroke-width:1.00000003pt;stroke-opacity:1"/></marker><marker id="Arrow1Send" orient="auto" refX="0" refY="0" style="overflow:visible"><path id="path1402" d="M 0,0 5,-5 -12.5,0 5,5 Z" transform="matrix(-0.2,0,0,-0.2,-1.2,0)" style="fill:#000;fill-opacity:1;fill-rule:evenodd;stroke:#000;stroke-width:1.00000003pt;stroke-opacity:1"/></marker><marker style="overflow:visible" id="marker1987" orient="auto" refX="0" refY="0"><path style="fill:#000;fill-opacity:1;fill-rule:evenodd;stroke:#000;stroke-width:.625;stroke-linejoin:round;stroke-opacity:1" id="path1985" d="M 8.7185878,4.0337352 -2.2072895,0.01601326 8.7185884,-4.0017078 c -1.7454984,2.3720609 -1.7354408,5.6174519 -6e-7,8.035443 z" transform="scale(0.6)"/></marker><marker id="marker1923" orient="auto" refX="0" refY="0" style="overflow:visible"><path id="path1921" d="M 0,0 5,-5 -12.5,0 5,5 Z" transform="matrix(-0.4,0,0,-0.4,-4,0)" style="fill:#000;fill-opacity:1;fill-rule:evenodd;stroke:#000;stroke-width:1.00000003pt;stroke-opacity:1"/></marker><marker id="Arrow2Lend" orient="auto" refX="0" refY="0" style="overflow:visible"><path id="path1408" d="M 8.7185878,4.0337352 -2.2072895,0.01601326 8.7185884,-4.0017078 c -1.7454984,2.3720609 -1.7354408,5.6174519 -6e-7,8.035443 z" transform="matrix(-1.1,0,0,-1.1,-1.1,0)" style="fill:#000;fill-opacity:1;fill-rule:evenodd;stroke:#000;stroke-width:.625;stroke-linejoin:round;stroke-opacity:1"/></marker><marker id="Arrow1Mend" orient="auto" refX="0" refY="0" style="overflow:visible"><path id="path1396" d="M 0,0 5,-5 -12.5,0 5,5 Z" transform="matrix(-0.4,0,0,-0.4,-4,0)" style="fill:#000;fill-opacity:1;fill-rule:evenodd;stroke:#000;stroke-width:1.00000003pt;stroke-opacity:1"/></marker><marker id="Arrow1Sstart" orient="auto" refX="0" refY="0" style="overflow:visible"><path id="path1399" d="M 0,0 5,-5 -12.5,0 5,5 Z" transform="matrix(0.2,0,0,0.2,1.2,0)" style="fill:#000;fill-opacity:1;fill-rule:evenodd;stroke:#000;stroke-width:1.00000003pt;stroke-opacity:1"/></marker><marker id="marker1671" orient="auto" refX="0" refY="0" style="overflow:visible"><path id="path1669" d="M 0,0 5,-5 -12.5,0 5,5 Z" transform="matrix(0.4,0,0,0.4,4,0)" style="fill:#000;fill-opacity:1;fill-rule:evenodd;stroke:#000;stroke-width:1.00000003pt;stroke-opacity:1"/></marker><marker id="Arrow1Mstart" orient="auto" refX="0" refY="0" style="overflow:visible"><path id="path1393" d="M 0,0 5,-5 -12.5,0 5,5 Z" transform="matrix(0.4,0,0,0.4,4,0)" style="fill:#000;fill-opacity:1;fill-rule:evenodd;stroke:#000;stroke-width:1.00000003pt;stroke-opacity:1"/></marker><marker id="Arrow2Mend-3" orient="auto" refX="0" refY="0" style="overflow:visible"><path id="path1414-1" d="M 8.7185878,4.0337352 -2.2072895,0.01601326 8.7185884,-4.0017078 c -1.7454984,2.3720609 -1.7354408,5.6174519 -6e-7,8.035443 z" transform="scale(-0.6)" style="fill:#e31a1c;fill-opacity:1;fill-rule:evenodd;stroke:#e31a1c;stroke-width:.625;stroke-linejoin:round;stroke-opacity:1"/></marker><marker id="Arrow2Mend-3-4" orient="auto" refX="0" refY="0" style="overflow:visible"><path id="path1414-1-7" d="M 8.7185878,4.0337352 -2.2072895,0.01601326 8.7185884,-4.0017078 c -1.7454984,2.3720609 -1.7354408,5.6174519 -6e-7,8.035443 z" transform="scale(-0.6)" style="fill:#e31a1c;fill-opacity:1;fill-rule:evenodd;stroke:#e31a1c;stroke-width:.625;stroke-linejoin:round;stroke-opacity:1"/></marker><marker id="Arrow2Mend-5" orient="auto" refX="0" refY="0" style="overflow:visible"><path id="path1414-5" d="M 8.7185878,4.0337352 -2.2072895,0.01601326 8.7185884,-4.0017078 c -1.7454984,2.3720609 -1.7354408,5.6174519 -6e-7,8.035443 z" transform="scale(-0.6)" style="fill:#000;fill-opacity:1;fill-rule:evenodd;stroke:#000;stroke-width:.625;stroke-linejoin:round;stroke-opacity:1"/></marker><marker style="overflow:visible" id="marker3113-6" orient="auto" refX="0" refY="0"><path style="fill:#e31a1c;fill-opacity:1;fill-rule:evenodd;stroke:#e31a1c;stroke-width:.625;stroke-linejoin:round;stroke-opacity:1" id="path3111-5" d="M 8.7185878,4.0337352 -2.2072895,0.01601326 8.7185884,-4.0017078 c -1.7454984,2.3720609 -1.7354408,5.6174519 -6e-7,8.035443 z" transform="scale(0.6)"/></marker><marker style="overflow:visible" id="marker3113-6-9" orient="auto" refX="0" refY="0"><path style="fill:#000;fill-opacity:1;fill-rule:evenodd;stroke:#000;stroke-width:.625;stroke-linejoin:round;stroke-opacity:1" id="path3111-5-3" d="M 8.7185878,4.0337352 -2.2072895,0.01601326 8.7185884,-4.0017078 c -1.7454984,2.3720609 -1.7354408,5.6174519 -6e-7,8.035443 z" transform="scale(0.6)"/></marker><marker style="overflow:visible" id="marker3113-5" orient="auto" refX="0" refY="0"><path style="fill:#000;fill-opacity:1;fill-rule:evenodd;stroke:#000;stroke-width:.625;stroke-linejoin:round;stroke-opacity:1" id="path3111-3" d="M 8.7185878,4.0337352 -2.2072895,0.01601326 8.7185884,-4.0017078 c -1.7454984,2.3720609 -1.7354408,5.6174519 -6e-7,8.035443 z" transform="scale(0.6)"/></marker></defs><metadata id="metadata4550"/><g id="layer1" transform="translate(86.128049,-91.452853)"><text style="font-style:normal;font-variant:normal;font-weight:400;font-stretch:normal;font-size:2.82222247px;line-height:125%;font-family:Arial;-inkscape-font-specification:Arial;letter-spacing:0;word-spacing:0;fill:#000;fill-opacity:1;stroke:none;stroke-width:.26458335px;stroke-linecap:butt;stroke-linejoin:miter;stroke-opacity:1" id="text1059" x="-103.433" y="54.115" xml:space="preserve"><tspan id="tspan1057" x="-103.433" y="54.115" style="stroke-width:.26458335px">Paired Palette: &quot;#A6CEE3&quot; &quot; #1F78B4&quot; &quot;#B2DF8A&quot; &quot;#33A02C&quot; &quot;#FB9A99&quot; &quot;#E31A1C&quot; &quot;#FDBF6F&quot; &quot;#FF7F00&quot; &quot;#CAB2D6&quot; &quot;#6A3D9A&quot; &quot;#FFFF99&quot; &quot;#B15928&quot;</tspan></text><rect style="opacity:1;fill:#a6cee3;fill-opacity:1;stroke:none;stroke-width:1.58750033;stroke-miterlimit:4;stroke-dasharray:none;paint-order:normal" id="rect899-5-9-9-6" width="9.622" height="9.622" x="-80.983" y="56.237" rx="3.473" ry="3.473"/><rect style="opacity:1;fill:#1f78b4;fill-opacity:1;stroke:none;stroke-width:1.58750033;stroke-miterlimit:4;stroke-dasharray:none;paint-order:normal" id="rect899-5-9-9-6-2" width="9.622" height="9.622" x="-65.108" y="56.237" rx="3.473" ry="3.473"/><rect style="opacity:1;fill:#b2df8a;fill-opacity:1;stroke:none;stroke-width:1.58750033;stroke-miterlimit:4;stroke-dasharray:none;paint-order:normal" id="rect899-5-9-9-6-2-6" width="9.622" height="9.622" x="-49.233" y="56.237" rx="3.473" ry="3.473"/><rect style="opacity:1;fill:#33a02c;fill-opacity:1;stroke:none;stroke-width:1.58750033;stroke-miterlimit:4;stroke-dasharray:none;paint-order:normal" id="rect899-5-9-9-6-2-6-1" width="9.622" height="9.622" x="-33.358" y="56.237" rx="3.473" ry="3.473"/><rect style="opacity:1;fill:#fb9a99;fill-opacity:1;stroke:none;stroke-width:1.58750033;stroke-miterlimit:4;stroke-dasharray:none;paint-order:normal" id="rect899-5-9-9-6-8" width="9.622" height="9.622" x="-17.483" y="56.237" rx="3.473" ry="3.473"/><rect style="opacity:1;fill:#e31a1c;fill-opacity:1;stroke:none;stroke-width:1.58750033;stroke-miterlimit:4;stroke-dasharray:none;paint-order:normal" id="rect899-5-9-9-6-2-7" width="9.622" height="9.622" x="-1.608" y="56.237" rx="3.473" ry="3.473"/><rect style="opacity:1;fill:#fdbf6f;fill-opacity:1;stroke:none;stroke-width:1.58750033;stroke-miterlimit:4;stroke-dasharray:none;paint-order:normal" id="rect899-5-9-9-6-2-6-9" width="9.622" height="9.622" x="14.267" y="56.237" rx="3.473" ry="3.473"/><rect style="opacity:1;fill:#ff7f00;fill-opacity:1;stroke:none;stroke-width:1.58750033;stroke-miterlimit:4;stroke-dasharray:none;paint-order:normal" id="rect899-5-9-9-6-2-6-1-2" width="9.622" height="9.622" x="30.142" y="56.237" rx="3.473" ry="3.473"/><rect style="opacity:1;fill:#cab2d6;fill-opacity:1;stroke:none;stroke-width:1.58750033;stroke-miterlimit:4;stroke-dasharray:none;paint-order:normal" id="rect899-5-9-9-6-8-0" width="9.622" height="9.622" x="46.017" y="56.237" rx="3.473" ry="3.473"/><rect style="opacity:1;fill:#6a3d9a;fill-opacity:1;stroke:none;stroke-width:1.58750033;stroke-miterlimit:4;stroke-dasharray:none;paint-order:normal" id="rect899-5-9-9-6-2-7-2" width="9.622" height="9.622" x="61.892" y="56.237" rx="3.473" ry="3.473"/><rect style="opacity:1;fill:#ff9;fill-opacity:1;stroke:none;stroke-width:1.58750033;stroke-miterlimit:4;stroke-dasharray:none;paint-order:normal" id="rect899-5-9-9-6-2-6-9-3" width="9.622" height="9.622" x="77.767" y="56.237" rx="3.473" ry="3.473"/><rect style="opacity:1;fill:#b15928;fill-opacity:1;stroke:none;stroke-width:1.58750033;stroke-miterlimit:4;stroke-dasharray:none;paint-order:normal" id="rect899-5-9-9-6-2-6-1-2-7" width="9.622" height="9.622" x="93.642" y="56.237" rx="3.473" ry="3.473"/><rect style="opacity:1;fill:#ff9;fill-opacity:1;stroke:#000;stroke-width:.26458335;stroke-miterlimit:4;stroke-dasharray:none;paint-order:normal" id="rect899-5-9-9-6-2-9-3-6-7" width="26.458" height="15.875" x="-19.25" y="109.713" rx="3.473" ry="3.473"/><text style="font-style:normal;font-variant:normal;font-weight:400;font-stretch:normal;font-size:4.23333359px;line-height:125%;font-family:Arial;-inkscape-font-specification:Arial;text-align:center;letter-spacing:0;word-spacing:0;text-anchor:middle;fill:#000;fill-opacity:1;stroke:none;stroke-width:.26458335px;stroke-linecap:butt;stroke-linejoin:miter;stroke-opacity:1" id="text1034-1" x="-6.156" y="118.72" xml:space="preserve"><tspan id="tspan1032-2" x="-6.156" y="118.72" style="font-style:normal;font-variant:normal;font-weight:700;font-stretch:normal;font-family:Arial;-inkscape-font-specification:'Arial Bold';text-align:center;text-anchor:middle;stroke-width:.26458335px">Flight stack</tspan></text><text style="font-style:normal;font-variant:normal;font-weight:400;font-stretch:normal;font-size:4.23333359px;line-height:125%;font-family:Arial;-inkscape-font-specification:Arial;text-align:center;letter-spacing:0;word-spacing:0;text-anchor:middle;fill:#000;fill-opacity:1;stroke:none;stroke-width:.26458335px;stroke-linecap:butt;stroke-linejoin:miter;stroke-opacity:1" id="text1034-3" x="49.213" y="113.048" xml:space="preserve"><tspan id="tspan1032-6" x="49.213" y="113.048" style="font-style:normal;font-variant:normal;font-weight:700;font-stretch:normal;font-family:Arial;-inkscape-font-specification:'Arial Bold';text-align:center;text-anchor:middle;stroke-width:.26458335px">PX4 motor/actuator outputs</tspan></text><rect style="opacity:1;fill:#ff9;fill-opacity:1;stroke:#000;stroke-width:.26458335;stroke-miterlimit:4;stroke-dasharray:none;paint-order:normal" id="rect899-5-9-9-6-2-9-3-6-7-7" width="26.458" height="15.875" x="-19.25" y="130.88" rx="3.473" ry="3.473"/><text style="font-style:normal;font-variant:normal;font-weight:400;font-stretch:normal;font-size:4.23333359px;line-height:125%;font-family:Arial;-inkscape-font-specification:Arial;text-align:center;letter-spacing:0;word-spacing:0;text-anchor:middle;fill:#000;fill-opacity:1;stroke:none;stroke-width:.26458335px;stroke-linecap:butt;stroke-linejoin:miter;stroke-opacity:1" id="text1034-7" x="-6.126" y="140.331" xml:space="preserve"><tspan style="font-style:normal;font-variant:normal;font-weight:700;font-stretch:normal;font-family:Arial;-inkscape-font-specification:'Arial Bold';text-align:center;text-anchor:middle;stroke-width:.26458335px" id="tspan1070" x="-6.126" y="140.331">Simulator</tspan></text><path style="opacity:1;fill:none;fill-opacity:1;stroke:#000;stroke-width:.66145837;stroke-miterlimit:4;stroke-dasharray:none;stroke-dashoffset:.25;stroke-opacity:1;marker-start:url(#marker3113);paint-order:normal" id="path8226" d="m -19.250475,117.65058 a 10.583334,10.583334 0 0 0 -9.165436,5.29167 10.583334,10.583334 0 0 0 1e-6,10.58334 10.583334,10.583334 0 0 0 9.165436,5.29166"/><path style="opacity:1;fill:none;fill-opacity:1;stroke:#000;stroke-width:.66145831;stroke-miterlimit:4;stroke-dasharray:none;stroke-dashoffset:.25;stroke-opacity:1;marker-start:url(#marker3113-5);paint-order:normal" id="path8226-5" d="m 7.2078598,138.81728 a 10.583334,10.583334 0 0 0 9.1654372,-5.29167 10.583334,10.583334 0 0 0 -1e-6,-10.58334 10.583334,10.583334 0 0 0 -9.1654372,-5.29166"/><g id="g8845" transform="translate(-1.0257152,10.583333)"><text id="text1034" x="-59.055" y="102.465" xml:space="preserve" style="font-style:normal;font-variant:normal;font-weight:400;font-stretch:normal;font-size:4.23333359px;line-height:125%;font-family:Arial;-inkscape-font-specification:Arial;text-align:center;letter-spacing:0;word-spacing:0;text-anchor:middle;fill:#000;fill-opacity:1;stroke:none;stroke-width:.26458335px;stroke-linecap:butt;stroke-linejoin:miter;stroke-opacity:1"><tspan style="font-style:normal;font-variant:normal;font-weight:700;font-stretch:normal;font-family:Arial;-inkscape-font-specification:'Arial Bold';text-align:center;text-anchor:middle;stroke-width:.26458335px" id="tspan1032" x="-59.055" y="102.465">PX4 inputs from simulator</tspan></text><text id="text8742" x="-82.162" y="108.771" xml:space="preserve" style="font-style:normal;font-variant:normal;font-weight:400;font-stretch:normal;font-size:3.52777791px;line-height:125%;font-family:Arial;-inkscape-font-specification:Arial;letter-spacing:0;word-spacing:0;writing-mode:lr-tb;fill:#000;fill-opacity:1;stroke:none;stroke-width:.26458335px;stroke-linecap:butt;stroke-linejoin:miter;stroke-opacity:1"><tspan style="font-size:3.88055563px;stroke-width:.26458335px" id="tspan8740" x="-82.162" y="108.771">Sensor and other message</tspan><tspan id="tspan8744" x="-82.162" y="113.181" style="font-size:3.52777791px;stroke-width:.26458335px">- HIL_SENSOR</tspan><tspan id="tspan8746" x="-82.162" y="117.59" style="font-size:3.52777791px;stroke-width:.26458335px">- HIL_GPS</tspan><tspan id="tspan8748" x="-82.162" y="122" style="font-size:3.52777791px;stroke-width:.26458335px">- HIL_OPTICAL_FLOW</tspan><tspan id="tspan8750" x="-82.162" y="126.41" style="font-size:3.52777791px;stroke-width:.26458335px">- HIL_RC_INPUTS_RAW</tspan><tspan id="tspan8752" x="-82.162" y="130.82" style="font-size:3.52777791px;stroke-width:.26458335px">- HIL_STATE_QUTERNION</tspan></text></g><text style="font-style:normal;font-variant:normal;font-weight:400;font-stretch:normal;font-size:3.52777791px;line-height:125%;font-family:Arial;-inkscape-font-specification:Arial;letter-spacing:0;word-spacing:0;writing-mode:lr-tb;fill:#000;fill-opacity:1;stroke:none;stroke-width:.26458335px;stroke-linecap:butt;stroke-linejoin:miter;stroke-opacity:1" id="text8742-6" x="18.42" y="119.307" xml:space="preserve"><tspan id="tspan8740-2" x="18.42" y="119.307" style="font-size:3.88055563px;stroke-width:.26458335px">Motor and actuator value messages</tspan><tspan style="font-size:3.52777791px;stroke-width:.26458335px" id="tspan8752-0" x="18.42" y="123.717">- HIL_ACTUATOR_CONTROLS</tspan></text><text style="font-style:normal;font-variant:normal;font-weight:400;font-stretch:normal;font-size:4.23333359px;line-height:125%;font-family:Arial;-inkscape-font-specification:Arial;text-align:center;letter-spacing:0;word-spacing:0;text-anchor:middle;fill:#000;fill-opacity:1;stroke:none;stroke-width:.26458335px;stroke-linecap:butt;stroke-linejoin:miter;stroke-opacity:1" id="text1034-9" x="-3.62" y="94.535" xml:space="preserve"><tspan id="tspan1032-3" x="-3.62" y="94.535" style="font-style:normal;font-variant:normal;font-weight:700;font-stretch:normal;font-family:Arial;-inkscape-font-specification:'Arial Bold';text-align:center;text-anchor:middle;stroke-width:.26458335px">Control signals / Telemetry</tspan></text><path style="fill:none;fill-rule:evenodd;stroke:#000;stroke-width:.66145831;stroke-linecap:butt;stroke-linejoin:miter;stroke-miterlimit:4;stroke-dasharray:1.32291668,1.32291668;stroke-dashoffset:2.71197915;stroke-opacity:1;marker-start:url(#marker1987);marker-end:url(#Arrow2Mend-5)" id="path8872" d="M -6.0213029,108.12574 V 96.484071"/></g></svg>