<svg xmlns="http://www.w3.org/2000/svg" xmlns:svg="http://www.w3.org/2000/svg" id="svg2" width="97.313" height="39.32" version="1.1"><metadata id="metadata7"/><g id="layer1" transform="translate(-91.884933,-141.95727)"><flowRoot style="font-style:italic;font-variant:normal;font-weight:700;font-stretch:normal;font-size:40px;line-height:125%;font-family:'Airbus Special';-inkscape-font-specification:'Airbus Special Bold Italic';letter-spacing:0;word-spacing:0;fill:#000;fill-opacity:1;stroke:none" id="flowRoot2993" xml:space="preserve"><flowRegion id="flowRegion2995"><rect id="rect2997" width="456.436" height="208.911" x="650.495" y="332.56"/></flowRegion><flowPara id="flowPara2999"/></flowRoot><g style="font-style:italic;font-variant:normal;font-weight:700;font-stretch:normal;font-size:40px;line-height:125%;font-family:'Airbus Special';-inkscape-font-specification:'Airbus Special Bold Italic';letter-spacing:0;word-spacing:0;fill:#fff;fill-opacity:1;stroke:none" id="text4163" transform="translate(-153.18412,-49.986397)"><path style="font-family:'Republika Exp';-inkscape-font-specification:'Republika Exp Bold Italic';fill:#fff;fill-opacity:1" id="path3039" d="m 271.89189,204.38367 c 0.45331,1e-5 0.73331,0.08 0.84,0.24 0.13331,0.16001 0.13331,0.50668 0,1.04 l -3.16,12.92 c -0.13335,0.53333 -0.29335,0.88 -0.48,1.04 -0.16002,0.16 -0.48002,0.24 -0.96,0.24 l -10.2,0 c -0.29334,0 -0.56001,0.08 -0.8,0.24 -0.21334,0.16 -0.34668,0.34666 -0.4,0.56 l -0.44,1.84 c -0.0533,0.21333 -0.0133,0.4 0.12,0.56 0.15999,0.16 0.38666,0.24 0.68,0.24 l 10.6,0 c 1.27998,0 2.37331,-0.0933 3.28,-0.28 0.93331,-0.18667 1.71998,-0.49334 2.36,-0.92 0.66664,-0.45334 1.21331,-1.04 1.64,-1.76 0.42664,-0.72 0.77331,-1.62667 1.04,-2.72 l 2.68,-11 c 0.26664,-1.09332 0.35997,-1.99999 0.28,-2.72 -0.08,-0.71998 -0.3467,-1.29332 -0.8,-1.72 -0.45336,-0.45332 -1.12003,-0.77332 -2,-0.96 -0.88003,-0.18665 -2.00003,-0.27998 -3.36,-0.28 l -19.44,0 c -0.29334,2e-5 -0.56,0.08 -0.8,0.24 -0.21334,0.16002 -0.34667,0.34668 -0.4,0.56 l -0.44,1.84 c -0.0533,0.21335 -0.0133,0.40001 0.12,0.56 0.16,0.16001 0.38666,0.24001 0.68,0.24 l 19.36,0 m -15.68,5.56 c 0.0533,-0.21332 -10e-6,-0.41332 -0.16,-0.6 -0.13334,-0.21332 -0.34667,-0.31999 -0.64,-0.32 l -4.12,0 c -0.29334,1e-5 -0.56,0.10668 -0.8,0.32 -0.21334,0.18668 -0.34667,0.38668 -0.4,0.6 l -5,20.52 c -0.0533,0.21332 -0.0133,0.39999 0.12,0.56 0.16,0.15999 0.38667,0.23999 0.68,0.24 l 4.12,0 c 0.29333,-1e-5 0.54666,-0.08 0.76,-0.24 0.24,-0.16001 0.38666,-0.34668 0.44,-0.56 l 5,-20.52"/><path style="font-family:'Republika Exp';-inkscape-font-specification:'Republika Exp Bold Italic';fill:#fff;fill-opacity:1" id="path3041" d="m 282.22439,223.30367 c 0.10667,0 0.25333,-0.0267 0.44,-0.08 0.18666,-0.08 0.30666,-0.14667 0.36,-0.2 l 9.68,-7.2 4.6,7.16 c 0.0533,0.08 0.14665,0.16 0.28,0.24 0.15998,0.0533 0.29332,0.08 0.4,0.08 l 5.36,0 c 0.45331,0 0.79998,-0.13334 1.04,-0.4 0.23998,-0.29334 0.25331,-0.58667 0.04,-0.88 l -7.12,-10.2 12.28,-9.52 c 0.3733,-0.29332 0.50664,-0.58665 0.4,-0.88 -0.1067,-0.29332 -0.3867,-0.43998 -0.84,-0.44 l -4.12,0 c -0.10669,2e-5 -0.24002,0.04 -0.4,0.12 -0.16002,0.0533 -0.29336,0.10668 -0.4,0.16 l -9.2,7.24 -4.92,-7.2 c -0.0533,-0.08 -0.17334,-0.14665 -0.36,-0.2 -0.16001,-0.08 -0.29334,-0.11998 -0.4,-0.12 l -5.56,0 c -0.45334,2e-5 -0.8,0.14668 -1.04,0.44 -0.24,0.26668 -0.25333,0.54668 -0.04,0.84 l 7.24,10.36 -9.56,7.28 -6.44,0 c -0.29333,0 -0.54666,0.08 -0.76,0.24 -0.23999,0.16 -0.38666,0.34666 -0.44,0.56 l -0.44,1.84 c -0.0533,0.21333 10e-6,0.4 0.16,0.56 0.13334,0.16 0.34667,0.24 0.64,0.24 l 9.12,-0.04"/><path style="font-family:'Republika Exp';-inkscape-font-specification:'Republika Exp Bold Italic';fill:#fff;fill-opacity:1" id="path3043" d="m 316.83127,208.50367 1.6,-6.56 c 0.0533,-0.21332 0.0133,-0.42665 -0.12,-0.64 -0.13335,-0.21332 -0.34668,-0.31998 -0.64,-0.32 l -4.24,0 c -0.29334,2e-5 -0.56001,0.10668 -0.8,0.32 -0.21334,0.21335 -0.34667,0.42668 -0.4,0.64 l -1.88,7.68 c -0.10667,0.42668 -0.16001,0.85334 -0.16,1.28 0.0267,0.42667 0.11999,0.81334 0.28,1.16 0.18666,0.34667 0.45333,0.64001 0.8,0.88 0.37333,0.21334 0.86666,0.32001 1.48,0.32 l 11.68,0 -2.24,9.24 c -0.0533,0.21333 -0.0134,0.4 0.12,0.56 0.15998,0.16 0.38665,0.24 0.68,0.24 l 4.24,0 c 0.29331,0 0.54664,-0.08 0.76,-0.24 0.23998,-0.16 0.38664,-0.34667 0.44,-0.56 l 2.24,-9.24 10.08,0 c 0.2133,1e-5 0.4133,-0.0533 0.6,-0.16 0.2133,-0.13333 0.3733,-0.26666 0.48,-0.4 l 0.4,-1.8 c 0.18663,-0.29333 0.19996,-0.53333 0.04,-0.72 -0.13337,-0.21332 -0.37337,-0.31999 -0.72,-0.32 l -10.08,0 1.96,-7.96 c 0.0533,-0.21332 -3e-5,-0.41332 -0.16,-0.6 -0.13336,-0.21332 -0.3467,-0.31998 -0.64,-0.32 l -4.24,0 c -0.29336,2e-5 -0.56002,0.10668 -0.8,0.32 -0.21336,0.18668 -0.34669,0.38668 -0.4,0.6 l -1.96,7.96 -7.6,0 c -0.37335,10e-6 -0.62668,-0.14666 -0.76,-0.44 -0.10668,-0.31999 -0.12001,-0.62666 -0.04,-0.92"/></g></g></svg>